<mxfile host="Electron" agent="Mozilla/5.0 (Windows NT 10.0; Win64; x64) AppleWebKit/537.36 (KHTML, like Gecko) draw.io/28.2.7 Chrome/138.0.7204.251 Electron/37.7.1 Safari/537.36" version="28.2.7">
  <diagram name="PÃ¡gina-1" id="MvYKRn3ltnCxMrXaUTZE">
    <mxGraphModel dx="1208" dy="580" grid="1" gridSize="10" guides="1" tooltips="1" connect="1" arrows="1" fold="1" page="1" pageScale="1" pageWidth="827" pageHeight="1169" math="0" shadow="0">
      <root>
        <mxCell id="0" />
        <mxCell id="1" parent="0" />
        <mxCell id="dgbS3uS-WDZ-dSw3o9hq-22" style="edgeStyle=orthogonalEdgeStyle;rounded=0;orthogonalLoop=1;jettySize=auto;html=1;" parent="1" source="dgbS3uS-WDZ-dSw3o9hq-1" target="dgbS3uS-WDZ-dSw3o9hq-2" edge="1">
          <mxGeometry relative="1" as="geometry" />
        </mxCell>
        <mxCell id="dgbS3uS-WDZ-dSw3o9hq-1" value="Landing Page" style="rounded=1;whiteSpace=wrap;html=1;" parent="1" vertex="1">
          <mxGeometry x="390" y="20" width="120" height="60" as="geometry" />
        </mxCell>
        <mxCell id="dgbS3uS-WDZ-dSw3o9hq-17" style="edgeStyle=orthogonalEdgeStyle;rounded=0;orthogonalLoop=1;jettySize=auto;html=1;" parent="1" source="dgbS3uS-WDZ-dSw3o9hq-2" target="dgbS3uS-WDZ-dSw3o9hq-3" edge="1">
          <mxGeometry relative="1" as="geometry" />
        </mxCell>
        <mxCell id="dgbS3uS-WDZ-dSw3o9hq-2" value="Login" style="rounded=1;whiteSpace=wrap;html=1;" parent="1" vertex="1">
          <mxGeometry x="390" y="120" width="120" height="60" as="geometry" />
        </mxCell>
        <mxCell id="dgbS3uS-WDZ-dSw3o9hq-18" style="edgeStyle=orthogonalEdgeStyle;rounded=0;orthogonalLoop=1;jettySize=auto;html=1;entryX=0.5;entryY=0;entryDx=0;entryDy=0;" parent="1" source="dgbS3uS-WDZ-dSw3o9hq-3" target="dgbS3uS-WDZ-dSw3o9hq-4" edge="1">
          <mxGeometry relative="1" as="geometry" />
        </mxCell>
        <mxCell id="dgbS3uS-WDZ-dSw3o9hq-19" style="edgeStyle=orthogonalEdgeStyle;rounded=0;orthogonalLoop=1;jettySize=auto;html=1;" parent="1" target="dgbS3uS-WDZ-dSw3o9hq-5" edge="1">
          <mxGeometry relative="1" as="geometry">
            <mxPoint x="450" y="310" as="sourcePoint" />
            <Array as="points">
              <mxPoint x="450" y="300" />
              <mxPoint x="700" y="300" />
            </Array>
          </mxGeometry>
        </mxCell>
        <mxCell id="dgbS3uS-WDZ-dSw3o9hq-20" style="edgeStyle=orthogonalEdgeStyle;rounded=0;orthogonalLoop=1;jettySize=auto;html=1;entryX=0.5;entryY=0;entryDx=0;entryDy=0;" parent="1" source="dgbS3uS-WDZ-dSw3o9hq-3" target="dgbS3uS-WDZ-dSw3o9hq-6" edge="1">
          <mxGeometry relative="1" as="geometry">
            <Array as="points">
              <mxPoint x="450" y="300" />
              <mxPoint x="200" y="300" />
            </Array>
          </mxGeometry>
        </mxCell>
        <mxCell id="dgbS3uS-WDZ-dSw3o9hq-3" value="Home" style="rounded=1;whiteSpace=wrap;html=1;" parent="1" vertex="1">
          <mxGeometry x="390" y="220" width="120" height="60" as="geometry" />
        </mxCell>
        <mxCell id="8ZCRnfHH3axpEAvFdJ-l-6" style="edgeStyle=orthogonalEdgeStyle;rounded=0;orthogonalLoop=1;jettySize=auto;html=1;entryX=0.5;entryY=0;entryDx=0;entryDy=0;" edge="1" parent="1" source="dgbS3uS-WDZ-dSw3o9hq-4" target="dgbS3uS-WDZ-dSw3o9hq-14">
          <mxGeometry relative="1" as="geometry" />
        </mxCell>
        <mxCell id="8ZCRnfHH3axpEAvFdJ-l-9" style="edgeStyle=orthogonalEdgeStyle;rounded=0;orthogonalLoop=1;jettySize=auto;html=1;entryX=0;entryY=0.5;entryDx=0;entryDy=0;" edge="1" parent="1" source="dgbS3uS-WDZ-dSw3o9hq-4" target="dgbS3uS-WDZ-dSw3o9hq-15">
          <mxGeometry relative="1" as="geometry">
            <Array as="points">
              <mxPoint x="450" y="590" />
            </Array>
          </mxGeometry>
        </mxCell>
        <mxCell id="dgbS3uS-WDZ-dSw3o9hq-4" value="Saved Courses" style="rounded=1;whiteSpace=wrap;html=1;" parent="1" vertex="1">
          <mxGeometry x="390" y="330" width="120" height="60" as="geometry" />
        </mxCell>
        <mxCell id="8ZCRnfHH3axpEAvFdJ-l-7" style="edgeStyle=orthogonalEdgeStyle;rounded=0;orthogonalLoop=1;jettySize=auto;html=1;entryX=0.5;entryY=0;entryDx=0;entryDy=0;" edge="1" parent="1" source="dgbS3uS-WDZ-dSw3o9hq-5" target="dgbS3uS-WDZ-dSw3o9hq-14">
          <mxGeometry relative="1" as="geometry" />
        </mxCell>
        <mxCell id="8ZCRnfHH3axpEAvFdJ-l-10" style="edgeStyle=orthogonalEdgeStyle;rounded=0;orthogonalLoop=1;jettySize=auto;html=1;entryX=1;entryY=0.5;entryDx=0;entryDy=0;" edge="1" parent="1" source="dgbS3uS-WDZ-dSw3o9hq-5" target="dgbS3uS-WDZ-dSw3o9hq-15">
          <mxGeometry relative="1" as="geometry">
            <Array as="points">
              <mxPoint x="700" y="590" />
            </Array>
          </mxGeometry>
        </mxCell>
        <mxCell id="dgbS3uS-WDZ-dSw3o9hq-5" value="Catalog" style="rounded=1;whiteSpace=wrap;html=1;" parent="1" vertex="1">
          <mxGeometry x="640" y="330" width="120" height="60" as="geometry" />
        </mxCell>
        <mxCell id="dgbS3uS-WDZ-dSw3o9hq-27" style="edgeStyle=orthogonalEdgeStyle;rounded=0;orthogonalLoop=1;jettySize=auto;html=1;entryX=0.5;entryY=0;entryDx=0;entryDy=0;" parent="1" source="dgbS3uS-WDZ-dSw3o9hq-6" target="dgbS3uS-WDZ-dSw3o9hq-12" edge="1">
          <mxGeometry relative="1" as="geometry" />
        </mxCell>
        <mxCell id="dgbS3uS-WDZ-dSw3o9hq-28" style="edgeStyle=orthogonalEdgeStyle;rounded=0;orthogonalLoop=1;jettySize=auto;html=1;entryX=0.5;entryY=0;entryDx=0;entryDy=0;" parent="1" source="dgbS3uS-WDZ-dSw3o9hq-6" target="dgbS3uS-WDZ-dSw3o9hq-13" edge="1">
          <mxGeometry relative="1" as="geometry" />
        </mxCell>
        <mxCell id="dgbS3uS-WDZ-dSw3o9hq-6" value="My Profile" style="rounded=1;whiteSpace=wrap;html=1;" parent="1" vertex="1">
          <mxGeometry x="140" y="330" width="120" height="60" as="geometry" />
        </mxCell>
        <mxCell id="dgbS3uS-WDZ-dSw3o9hq-12" value="My Data" style="rounded=1;whiteSpace=wrap;html=1;" parent="1" vertex="1">
          <mxGeometry x="110" y="440" width="85" height="60" as="geometry" />
        </mxCell>
        <mxCell id="dgbS3uS-WDZ-dSw3o9hq-13" value="Adjustments" style="rounded=1;whiteSpace=wrap;html=1;" parent="1" vertex="1">
          <mxGeometry x="205" y="440" width="85" height="60" as="geometry" />
        </mxCell>
        <mxCell id="8ZCRnfHH3axpEAvFdJ-l-11" style="edgeStyle=orthogonalEdgeStyle;rounded=0;orthogonalLoop=1;jettySize=auto;html=1;entryX=0.5;entryY=0;entryDx=0;entryDy=0;" edge="1" parent="1" source="dgbS3uS-WDZ-dSw3o9hq-14" target="dgbS3uS-WDZ-dSw3o9hq-15">
          <mxGeometry relative="1" as="geometry" />
        </mxCell>
        <mxCell id="dgbS3uS-WDZ-dSw3o9hq-14" value="Title Page" style="rounded=1;whiteSpace=wrap;html=1;" parent="1" vertex="1">
          <mxGeometry x="535" y="470" width="85" height="60" as="geometry" />
        </mxCell>
        <mxCell id="8ZCRnfHH3axpEAvFdJ-l-12" style="edgeStyle=orthogonalEdgeStyle;rounded=0;orthogonalLoop=1;jettySize=auto;html=1;" edge="1" parent="1" source="dgbS3uS-WDZ-dSw3o9hq-15" target="dgbS3uS-WDZ-dSw3o9hq-16">
          <mxGeometry relative="1" as="geometry" />
        </mxCell>
        <mxCell id="dgbS3uS-WDZ-dSw3o9hq-15" value="Learn" style="rounded=1;whiteSpace=wrap;html=1;" parent="1" vertex="1">
          <mxGeometry x="535" y="560" width="85" height="60" as="geometry" />
        </mxCell>
        <mxCell id="dgbS3uS-WDZ-dSw3o9hq-16" value="Course (CourseID)" style="rounded=1;whiteSpace=wrap;html=1;" parent="1" vertex="1">
          <mxGeometry x="517.5" y="650" width="120" height="60" as="geometry" />
        </mxCell>
      </root>
    </mxGraphModel>
  </diagram>
</mxfile>
